<svg width="27" height="31" viewBox="0 0 27 31" fill="none" xmlns="http://www.w3.org/2000/svg">
<path d="M23.9258 3.82967H21.0824V0.749311C21.0824 0.356744 20.7641 0.0384598 20.3716 0.0384598H18.0021C17.6095 0.0384598 17.2912 0.356744 17.2912 0.749311V3.82967H9.70878V0.749311C9.70878 0.356744 9.3905 0.0384598 8.99793 0.0384598H6.62842C6.23586 0.0384598 5.91757 0.356744 5.91757 0.749311V3.82967H3.07417C1.50378 3.82967 0.230759 5.10269 0.230759 6.67308V27.5247C0.230759 29.0951 1.50378 30.3681 3.07417 30.3681H23.9258C25.4962 30.3681 26.7692 29.0951 26.7692 27.5247V6.67308C26.7692 5.10269 25.4962 3.82967 23.9258 3.82967ZM23.5704 27.5247H3.42959C3.33533 27.5247 3.24492 27.4873 3.17827 27.4206C3.11161 27.354 3.07417 27.2636 3.07417 27.1693V9.51648H23.9258V27.1693C23.9258 27.2636 23.8884 27.354 23.8217 27.4206C23.7551 27.4873 23.6647 27.5247 23.5704 27.5247ZM20.4397 15.6387L12.0097 24.0012C11.731 24.2777 11.2809 24.2759 11.0044 23.9972L6.55615 19.513C6.27969 19.2342 6.28147 18.7842 6.56018 18.5076L7.906 17.1727C8.18471 16.8962 8.6348 16.898 8.91126 17.1767L11.5239 19.8105L18.1035 13.2836C18.3822 13.0072 18.8323 13.009 19.1088 13.2877L20.4438 14.6334C20.7203 14.9121 20.7185 15.3622 20.4397 15.6387Z" fill="#FFFAFA"/>
</svg>
