<svg width="26" height="21" viewBox="0 0 26 21" fill="none" xmlns="http://www.w3.org/2000/svg">
<path d="M12.6553 5.24519L4.33368 12.099V19.4962C4.33368 19.6878 4.40976 19.8715 4.54519 20.0069C4.68063 20.1423 4.86431 20.2184 5.05584 20.2184L10.1137 20.2053C10.3046 20.2044 10.4874 20.1279 10.622 19.9925C10.7567 19.8572 10.8323 19.6741 10.8323 19.4832V15.1632C10.8323 14.9717 10.9084 14.788 11.0438 14.6526C11.1792 14.5172 11.3629 14.4411 11.5544 14.4411H14.4431C14.6346 14.4411 14.8183 14.5172 14.9538 14.6526C15.0892 14.788 15.1653 14.9717 15.1653 15.1632V19.48C15.165 19.575 15.1834 19.6692 15.2196 19.757C15.2558 19.8449 15.3089 19.9248 15.376 19.9921C15.4431 20.0594 15.5228 20.1128 15.6106 20.1492C15.6983 20.1857 15.7924 20.2044 15.8874 20.2044L20.9435 20.2184C21.135 20.2184 21.3187 20.1423 21.4542 20.0069C21.5896 19.8715 21.6657 19.6878 21.6657 19.4962V12.094L13.3459 5.24519C13.2481 5.16635 13.1262 5.12335 13.0006 5.12335C12.8749 5.12335 12.7531 5.16635 12.6553 5.24519ZM25.8001 9.90361L22.0268 6.79333V0.541625C22.0268 0.397977 21.9697 0.260213 21.8681 0.158638C21.7665 0.057064 21.6288 0 21.4851 0H18.9576C18.8139 0 18.6761 0.057064 18.5746 0.158638C18.473 0.260213 18.4159 0.397977 18.4159 0.541625V3.81891L14.375 0.494233C13.9872 0.175116 13.5005 0.000637919 12.9983 0.000637919C12.4961 0.000637919 12.0095 0.175116 11.6217 0.494233L0.196564 9.90361C0.141719 9.94894 0.0963433 10.0046 0.0630297 10.0675C0.0297162 10.1304 0.0091177 10.1992 0.0024112 10.27C-0.00429529 10.3409 0.00302166 10.4123 0.023944 10.4804C0.0448663 10.5484 0.0789839 10.6116 0.124347 10.6664L1.2753 12.0656C1.32054 12.1206 1.37619 12.1662 1.43905 12.1996C1.50192 12.2331 1.57077 12.2539 1.64166 12.2607C1.71256 12.2675 1.7841 12.2603 1.8522 12.2395C1.92031 12.2186 1.98363 12.1845 2.03854 12.1392L12.6553 3.39463C12.7531 3.31579 12.8749 3.2728 13.0006 3.2728C13.1262 3.2728 13.2481 3.31579 13.3459 3.39463L23.9631 12.1392C24.0179 12.1845 24.0811 12.2187 24.1491 12.2396C24.2171 12.2605 24.2886 12.2678 24.3594 12.2611C24.4303 12.2544 24.4991 12.2338 24.562 12.2005C24.6248 12.1672 24.6805 12.1218 24.7259 12.067L25.8768 10.6678C25.9221 10.6126 25.9561 10.5491 25.9768 10.4808C25.9974 10.4125 26.0044 10.3407 25.9973 10.2697C25.9902 10.1987 25.9691 10.1298 25.9352 10.067C25.9014 10.0042 25.8554 9.94864 25.8001 9.90361Z" fill="#ACACAC"/>
</svg>
