<svg width="26" height="34" viewBox="0 0 26 34" fill="none" xmlns="http://www.w3.org/2000/svg">
<path d="M22.3125 4.25H17C17 1.90586 15.0941 0 12.75 0C10.4059 0 8.5 1.90586 8.5 4.25H3.1875C1.42773 4.25 0 5.67773 0 7.4375V30.8125C0 32.5723 1.42773 34 3.1875 34H22.3125C24.0723 34 25.5 32.5723 25.5 30.8125V7.4375C25.5 5.67773 24.0723 4.25 22.3125 4.25ZM6.375 28.1562C5.4918 28.1562 4.78125 27.4457 4.78125 26.5625C4.78125 25.6793 5.4918 24.9688 6.375 24.9688C7.2582 24.9688 7.96875 25.6793 7.96875 26.5625C7.96875 27.4457 7.2582 28.1562 6.375 28.1562ZM6.375 21.7812C5.4918 21.7812 4.78125 21.0707 4.78125 20.1875C4.78125 19.3043 5.4918 18.5938 6.375 18.5938C7.2582 18.5938 7.96875 19.3043 7.96875 20.1875C7.96875 21.0707 7.2582 21.7812 6.375 21.7812ZM6.375 15.4062C5.4918 15.4062 4.78125 14.6957 4.78125 13.8125C4.78125 12.9293 5.4918 12.2188 6.375 12.2188C7.2582 12.2188 7.96875 12.9293 7.96875 13.8125C7.96875 14.6957 7.2582 15.4062 6.375 15.4062ZM12.75 2.65625C13.6332 2.65625 14.3438 3.3668 14.3438 4.25C14.3438 5.1332 13.6332 5.84375 12.75 5.84375C11.8668 5.84375 11.1562 5.1332 11.1562 4.25C11.1562 3.3668 11.8668 2.65625 12.75 2.65625ZM21.25 27.0938C21.25 27.3859 21.0109 27.625 20.7188 27.625H11.1562C10.8641 27.625 10.625 27.3859 10.625 27.0938V26.0312C10.625 25.7391 10.8641 25.5 11.1562 25.5H20.7188C21.0109 25.5 21.25 25.7391 21.25 26.0312V27.0938ZM21.25 20.7188C21.25 21.0109 21.0109 21.25 20.7188 21.25H11.1562C10.8641 21.25 10.625 21.0109 10.625 20.7188V19.6562C10.625 19.3641 10.8641 19.125 11.1562 19.125H20.7188C21.0109 19.125 21.25 19.3641 21.25 19.6562V20.7188ZM21.25 14.3438C21.25 14.6359 21.0109 14.875 20.7188 14.875H11.1562C10.8641 14.875 10.625 14.6359 10.625 14.3438V13.2812C10.625 12.9891 10.8641 12.75 11.1562 12.75H20.7188C21.0109 12.75 21.25 12.9891 21.25 13.2812V14.3438Z" fill="white"/>
</svg>
