<svg width="15" height="16" viewBox="0 0 15 16" fill="none" xmlns="http://www.w3.org/2000/svg">
<path d="M7.06978 1.6C8.53156 1.6 9.72113 2.6768 9.72113 4H11.4887C11.4887 1.7944 9.50637 0 7.06978 0C4.63319 0 2.65086 1.7944 2.65086 4V5.6H1.76708C0.792266 5.6 -0.000488281 6.3176 -0.000488281 7.2V14.4C-0.000488281 15.2824 0.792266 16 1.76708 16H12.3725C13.3473 16 14.1401 15.2824 14.1401 14.4V7.2C14.1401 6.3176 13.3473 5.6 12.3725 5.6H11.4887H9.72113H4.41843V4C4.41843 2.6768 5.608 1.6 7.06978 1.6ZM12.3743 14.4H7.95357V12.5776C8.47942 12.3 8.83735 11.7896 8.83735 11.2C8.83735 10.3176 8.0446 9.6 7.06978 9.6C6.09497 9.6 5.30221 10.3176 5.30221 11.2C5.30221 11.7888 5.66015 12.3 6.186 12.5776V14.4H1.76708V7.2H12.3725L12.3743 14.4Z" fill="#8E8EA1"/>
<path d="M11.4887 4H9.72113V5.6H11.4887V4Z" fill="#8E8EA1"/>
</svg>
