<svg width="31" height="31" viewBox="0 0 31 31" fill="none" xmlns="http://www.w3.org/2000/svg">
<path d="M24.2677 14.34V16.5462C24.2677 17.0012 23.8954 17.3735 23.4404 17.3735H17.3735V23.4404C17.3735 23.8954 17.0012 24.2677 16.5462 24.2677H14.34C13.885 24.2677 13.5127 23.8954 13.5127 23.4404V17.3735H7.44578C6.99076 17.3735 6.61847 17.0012 6.61847 16.5462V14.34C6.61847 13.885 6.99076 13.5127 7.44578 13.5127H13.5127V7.44578C13.5127 6.99076 13.885 6.61847 14.34 6.61847H16.5462C17.0012 6.61847 17.3735 6.99076 17.3735 7.44578V13.5127H23.4404C23.8954 13.5127 24.2677 13.885 24.2677 14.34ZM30.8862 3.30923V27.577C30.8862 29.4039 29.4039 30.8862 27.577 30.8862H3.30923C1.48226 30.8862 0 29.4039 0 27.577V3.30923C0 1.48226 1.48226 0 3.30923 0H27.577C29.4039 0 30.8862 1.48226 30.8862 3.30923ZM27.577 27.1633V3.72289C27.577 3.49538 27.3908 3.30923 27.1633 3.30923H3.72289C3.49538 3.30923 3.30923 3.49538 3.30923 3.72289V27.1633C3.30923 27.3908 3.49538 27.577 3.72289 27.577H27.1633C27.3908 27.577 27.577 27.3908 27.577 27.1633Z" fill="#EFECEC"/>
</svg>
