<svg width="35" height="35" viewBox="0 0 35 35" fill="none" xmlns="http://www.w3.org/2000/svg">
<path d="M17.0923 0C7.65017 0 0 7.65017 0 17.0923C0 26.5344 7.65017 34.1845 17.0923 34.1845C26.5344 34.1845 34.1845 26.5344 34.1845 17.0923C34.1845 7.65017 26.5344 0 17.0923 0ZM23.4667 21.5721L22.0883 23.2951C21.9978 23.4082 21.886 23.5024 21.7591 23.5722C21.6323 23.6421 21.4929 23.6863 21.349 23.7023C21.205 23.7183 21.0594 23.7058 20.9203 23.6655C20.7812 23.6252 20.6514 23.5579 20.5383 23.4674L15.9206 20.0407C15.598 19.7824 15.3375 19.4548 15.1586 19.0822C14.9796 18.7096 14.8868 18.3016 14.8868 17.8883V7.16772C14.8868 6.87526 15.003 6.59478 15.2098 6.38798C15.4166 6.18118 15.6971 6.065 15.9895 6.065H18.195C18.4875 6.065 18.7679 6.18118 18.9747 6.38798C19.1815 6.59478 19.2977 6.87526 19.2977 7.16772V17.0923L23.2951 20.0214C23.4082 20.1119 23.5024 20.2238 23.5723 20.3508C23.6422 20.4777 23.6863 20.6172 23.7023 20.7612C23.7182 20.9052 23.7056 21.0509 23.6652 21.1901C23.6248 21.3292 23.5573 21.459 23.4667 21.5721Z" fill="white"/>
</svg>
