<svg width="22" height="22" viewBox="0 0 22 22" fill="none" xmlns="http://www.w3.org/2000/svg">
<path d="M11 0C4.92339 0 0 4.92339 0 11C0 17.0766 4.92339 22 11 22C17.0766 22 22 17.0766 22 11C22 4.92339 17.0766 0 11 0ZM11 4.25806C13.1556 4.25806 14.9032 6.00565 14.9032 8.16129C14.9032 10.3169 13.1556 12.0645 11 12.0645C8.84435 12.0645 7.09677 10.3169 7.09677 8.16129C7.09677 6.00565 8.84435 4.25806 11 4.25806ZM11 19.5161C8.39637 19.5161 6.06331 18.3363 4.50202 16.4911C5.33589 14.921 6.96814 13.8387 8.87097 13.8387C8.97742 13.8387 9.08387 13.8565 9.18589 13.8875C9.7625 14.0738 10.3657 14.1935 11 14.1935C11.6343 14.1935 12.2419 14.0738 12.8141 13.8875C12.9161 13.8565 13.0226 13.8387 13.129 13.8387C15.0319 13.8387 16.6641 14.921 17.498 16.4911C15.9367 18.3363 13.6036 19.5161 11 19.5161Z" fill="#9B9B9B"/>
</svg>
